<svg xmlns="http://www.w3.org/2000/svg" xmlns:xlink="http://www.w3.org/1999/xlink" width="1000" zoomAndPan="magnify" viewBox="0 0 750 749.999995" height="1000" preserveAspectRatio="xMidYMid meet" version="1.0"><defs><clipPath id="328fb87798"><path d="M 287.050781 98.839844 L 462.949219 98.839844 L 462.949219 348.941406 L 287.050781 348.941406 Z M 287.050781 98.839844 " clip-rule="nonzero"/></clipPath><clipPath id="254d0fc416"><path d="M 447.285156 228.890625 C 447.285156 266.503906 437.136719 282.953125 435.878906 284.847656 C 435.824219 284.976562 435.75 285.035156 435.75 285.035156 C 423.839844 306.832031 401.796875 322.398438 375.890625 323.976562 C 374.1875 324.105469 372.496094 324.105469 370.789062 324.105469 L 335.1875 324.105469 C 346.910156 319.0625 358.691406 313.65625 369.777344 308.351562 C 401.59375 291.464844 426.238281 260.140625 433.609375 224.988281 C 420.183594 256.425781 395.609375 283.53125 364.863281 298.519531 C 354.09375 303.433594 337.773438 310.617188 326.746094 315.78125 C 326.179688 316.097656 325.675781 316.285156 325.167969 316.601562 C 338.003906 298.058594 354.152344 277.328125 374.214844 256.023438 C 392.140625 236.984375 409.816406 221.097656 426.066406 207.988281 C 431.875 203.289062 437.109375 197.839844 440.867188 191.394531 C 444.785156 184.65625 447.992188 176.316406 447.992188 166.503906 C 447.992188 165.375 448.050781 164.101562 448.050781 162.917969 C 448.035156 129.078125 421.960938 98.839844 388.683594 98.839844 L 289.25 98.839844 L 289.25 173.253906 C 300.21875 145.714844 325.675781 125.175781 356.609375 123.222656 C 358.503906 123.167969 360.324219 123.09375 362.273438 123.09375 L 409.789062 123.09375 C 391.835938 130.972656 372.929688 139.847656 355.726562 148.796875 C 323.664062 167.269531 298.195312 197.957031 287.050781 233.054688 C 303.933594 201.988281 329.648438 175.089844 360.902344 158.449219 C 371.859375 153.03125 388.496094 145.226562 399.773438 139.617188 C 403.242188 137.851562 406.769531 136.089844 410.292969 134.195312 C 402.851562 157.742188 389.335938 178.917969 371.09375 195.585938 L 307.980469 253.304688 L 307.996094 253.347656 C 305.019531 256.023438 302.257812 258.941406 299.902344 262.222656 C 299.902344 262.28125 299.84375 262.355469 299.773438 262.410156 C 292.964844 271.488281 289.25 282.503906 289.25 293.921875 L 289.25 312.441406 C 289.25 332.476562 305.511719 348.679688 325.488281 348.679688 L 386.789062 348.679688 C 427.121094 348.679688 461.523438 317.238281 462.910156 276.96875 C 463.476562 258.753906 457.546875 242.058594 447.285156 228.890625 " clip-rule="nonzero"/></clipPath><clipPath id="87280de40f"><path d="M 0.0507812 0.839844 L 175.949219 0.839844 L 175.949219 250.71875 L 0.0507812 250.71875 Z M 0.0507812 0.839844 " clip-rule="nonzero"/></clipPath><clipPath id="0d879343a3"><path d="M 160.285156 130.890625 C 160.285156 168.503906 150.136719 184.953125 148.878906 186.847656 C 148.824219 186.976562 148.75 187.035156 148.75 187.035156 C 136.839844 208.832031 114.796875 224.398438 88.890625 225.976562 C 87.1875 226.105469 85.496094 226.105469 83.789062 226.105469 L 48.1875 226.105469 C 59.910156 221.0625 71.691406 215.65625 82.777344 210.351562 C 114.59375 193.464844 139.238281 162.140625 146.609375 126.988281 C 133.183594 158.425781 108.609375 185.53125 77.863281 200.519531 C 67.09375 205.433594 50.773438 212.617188 39.746094 217.78125 C 39.179688 218.097656 38.675781 218.285156 38.167969 218.601562 C 51.003906 200.058594 67.152344 179.328125 87.214844 158.023438 C 105.140625 138.984375 122.816406 123.097656 139.066406 109.988281 C 144.875 105.289062 150.109375 99.839844 153.867188 93.394531 C 157.785156 86.65625 160.992188 78.316406 160.992188 68.503906 C 160.992188 67.375 161.050781 66.101562 161.050781 64.917969 C 161.035156 31.078125 134.960938 0.839844 101.683594 0.839844 L 2.25 0.839844 L 2.25 75.253906 C 13.21875 47.714844 38.675781 27.175781 69.609375 25.222656 C 71.503906 25.167969 73.324219 25.09375 75.273438 25.09375 L 122.789062 25.09375 C 104.835938 32.972656 85.929688 41.847656 68.726562 50.796875 C 36.664062 69.269531 11.195312 99.957031 0.0507812 135.054688 C 16.933594 103.988281 42.648438 77.089844 73.902344 60.449219 C 84.859375 55.03125 101.496094 47.226562 112.773438 41.617188 C 116.242188 39.851562 119.769531 38.089844 123.292969 36.195312 C 115.851562 59.742188 102.335938 80.917969 84.09375 97.585938 L 20.980469 155.304688 L 20.996094 155.347656 C 18.019531 158.023438 15.257812 160.941406 12.902344 164.222656 C 12.902344 164.28125 12.84375 164.355469 12.773438 164.410156 C 5.964844 173.488281 2.25 184.503906 2.25 195.921875 L 2.25 214.441406 C 2.25 234.476562 18.511719 250.679688 38.488281 250.679688 L 99.789062 250.679688 C 140.121094 250.679688 174.523438 219.238281 175.910156 178.96875 C 176.476562 160.753906 170.546875 144.058594 160.285156 130.890625 " clip-rule="nonzero"/></clipPath><clipPath id="908bd54dc8"><rect x="0" width="176" y="0" height="251"/></clipPath><clipPath id="a4d5a7a1c6"><path d="M 180.085938 397 L 212 397 L 212 436 L 180.085938 436 Z M 180.085938 397 " clip-rule="nonzero"/></clipPath><clipPath id="3fe5f75470"><path d="M 211.984375 435.503906 L 211.984375 428.015625 C 211.984375 412.160156 196.734375 397.257812 180.53125 397.257812 L 180.53125 404.746094 C 180.53125 420.601562 195.796875 435.503906 211.984375 435.503906 " clip-rule="nonzero"/></clipPath><clipPath id="c24c155247"><path d="M 0.480469 0.199219 L 32 0.199219 L 32 38.601562 L 0.480469 38.601562 Z M 0.480469 0.199219 " clip-rule="nonzero"/></clipPath><clipPath id="8114e7ad34"><path d="M 31.984375 38.503906 L 31.984375 31.015625 C 31.984375 15.160156 16.734375 0.257812 0.53125 0.257812 L 0.53125 7.746094 C 0.53125 23.601562 15.796875 38.503906 31.984375 38.503906 " clip-rule="nonzero"/></clipPath><clipPath id="13621d1c08"><rect x="0" width="32" y="0" height="39"/></clipPath><clipPath id="f26ba6d826"><path d="M 33 397 L 346 397 L 346 568.46875 L 33 568.46875 Z M 33 397 " clip-rule="nonzero"/></clipPath><clipPath id="be4bc5e115"><path d="M 314.167969 513.273438 C 314.167969 536.644531 303.601562 555.683594 290.605469 555.683594 C 277.609375 555.683594 267.042969 536.644531 267.042969 513.273438 L 267.042969 496.230469 C 267.042969 472.855469 277.609375 453.878906 290.605469 453.878906 C 303.601562 453.878906 314.167969 472.871094 314.167969 496.230469 Z M 85.402344 560.207031 L 64.660156 560.207031 L 64.660156 479.96875 L 85.402344 479.96875 C 107.503906 479.96875 125.515625 497.980469 125.515625 520.082031 C 125.515625 542.242188 107.503906 560.195312 85.402344 560.195312 M 55.019531 406.753906 L 80.183594 406.753906 C 97.082031 406.753906 110.800781 420.484375 110.800781 437.371094 C 110.800781 454.210938 97.066406 467.941406 80.183594 467.941406 L 64.660156 467.941406 L 64.660156 428.03125 C 64.660156 420.140625 60.859375 412.449219 55.019531 406.753906 M 295.332031 441.417969 C 292.746094 441.230469 290.273438 441.171875 287.742188 441.316406 L 287.542969 441.316406 C 287.050781 441.359375 286.617188 441.417969 286.125 441.460938 C 253.3125 443.265625 224.632812 465.902344 211.984375 495.695312 L 211.984375 471.988281 C 211.984375 456.117188 196.75 441.214844 180.53125 441.214844 L 180.53125 463.085938 C 179.359375 474.722656 177.511719 486.113281 174.257812 497.070312 C 170.210938 511.972656 163.011719 527.105469 152.9375 539.335938 C 155.523438 533.4375 156.984375 526.960938 156.984375 520.109375 C 156.984375 508.371094 152.792969 497.574219 145.78125 489.25 C 138.769531 480.878906 128.984375 474.9375 117.839844 472.796875 C 130.546875 466.078125 139.21875 452.734375 139.21875 437.398438 C 139.21875 426.296875 134.738281 416.265625 127.480469 409.007812 C 120.226562 401.753906 110.179688 397.257812 99.121094 397.257812 L 33.207031 397.257812 L 33.207031 537.570312 C 33.207031 553.398438 48.441406 568.289062 64.660156 568.289062 L 106.765625 568.289062 L 106.765625 568.332031 C 145.277344 569.15625 171.28125 536.632812 180.53125 501 L 180.53125 537.570312 C 180.53125 553.398438 195.824219 568.289062 211.984375 568.289062 L 211.984375 521.0625 C 212.027344 520.917969 212.085938 520.773438 212.085938 520.574219 C 213.257812 515.945312 214.960938 509.527344 216.566406 505.089844 C 223.144531 487.949219 234.042969 472.320312 248.699219 461.175781 C 240.519531 471.152344 235.5625 484.015625 235.5625 498.082031 L 235.5625 513.273438 C 235.5625 528.464844 241.746094 542.195312 251.679688 552.171875 C 261.710938 562.144531 275.484375 568.332031 290.722656 568.289062 C 321.335938 568.246094 345.636719 542.140625 345.636719 511.523438 L 345.636719 496.230469 C 345.636719 467.464844 323.535156 443.800781 295.347656 441.417969 " clip-rule="nonzero"/></clipPath><clipPath id="81e1b4cabd"><path d="M 0.121094 0.199219 L 312.839844 0.199219 L 312.839844 171.46875 L 0.121094 171.46875 Z M 0.121094 0.199219 " clip-rule="nonzero"/></clipPath><clipPath id="2166ad864f"><path d="M 281.167969 116.273438 C 281.167969 139.644531 270.601562 158.683594 257.605469 158.683594 C 244.609375 158.683594 234.042969 139.644531 234.042969 116.273438 L 234.042969 99.230469 C 234.042969 75.855469 244.609375 56.878906 257.605469 56.878906 C 270.601562 56.878906 281.167969 75.871094 281.167969 99.230469 Z M 52.402344 163.207031 L 31.660156 163.207031 L 31.660156 82.96875 L 52.402344 82.96875 C 74.503906 82.96875 92.515625 100.980469 92.515625 123.082031 C 92.515625 145.242188 74.503906 163.195312 52.402344 163.195312 M 22.019531 9.753906 L 47.183594 9.753906 C 64.082031 9.753906 77.800781 23.484375 77.800781 40.371094 C 77.800781 57.210938 64.066406 70.941406 47.183594 70.941406 L 31.660156 70.941406 L 31.660156 31.03125 C 31.660156 23.140625 27.859375 15.449219 22.019531 9.753906 M 262.332031 44.417969 C 259.746094 44.230469 257.273438 44.171875 254.742188 44.316406 L 254.542969 44.316406 C 254.050781 44.359375 253.617188 44.417969 253.125 44.460938 C 220.3125 46.265625 191.632812 68.902344 178.984375 98.695312 L 178.984375 74.988281 C 178.984375 59.117188 163.75 44.214844 147.53125 44.214844 L 147.53125 66.085938 C 146.359375 77.722656 144.511719 89.113281 141.257812 100.070312 C 137.210938 114.972656 130.011719 130.105469 119.9375 142.335938 C 122.523438 136.4375 123.984375 129.960938 123.984375 123.109375 C 123.984375 111.371094 119.792969 100.574219 112.78125 92.25 C 105.769531 83.878906 95.984375 77.9375 84.839844 75.796875 C 97.546875 69.078125 106.21875 55.734375 106.21875 40.398438 C 106.21875 29.296875 101.738281 19.265625 94.480469 12.007812 C 87.226562 4.753906 77.179688 0.257812 66.121094 0.257812 L 0.207031 0.257812 L 0.207031 140.570312 C 0.207031 156.398438 15.441406 171.289062 31.660156 171.289062 L 73.765625 171.289062 L 73.765625 171.332031 C 112.277344 172.15625 138.28125 139.632812 147.53125 104 L 147.53125 140.570312 C 147.53125 156.398438 162.824219 171.289062 178.984375 171.289062 L 178.984375 124.0625 C 179.027344 123.917969 179.085938 123.773438 179.085938 123.574219 C 180.257812 118.945312 181.960938 112.527344 183.566406 108.089844 C 190.144531 90.949219 201.042969 75.320312 215.699219 64.175781 C 207.519531 74.152344 202.5625 87.015625 202.5625 101.082031 L 202.5625 116.273438 C 202.5625 131.464844 208.746094 145.195312 218.679688 155.171875 C 228.710938 165.144531 242.484375 171.332031 257.722656 171.289062 C 288.335938 171.246094 312.636719 145.140625 312.636719 114.523438 L 312.636719 99.230469 C 312.636719 70.464844 290.535156 46.800781 262.347656 44.417969 " clip-rule="nonzero"/></clipPath><clipPath id="a8ff909d0f"><rect x="0" width="313" y="0" height="172"/></clipPath><clipPath id="eee9dbbccf"><path d="M 346.359375 401 L 717 401 L 717 591 L 346.359375 591 Z M 346.359375 401 " clip-rule="nonzero"/></clipPath><clipPath id="53dabb3ae3"><path d="M 509.496094 496.230469 C 509.496094 472.855469 520.0625 453.878906 533.058594 453.878906 C 544.738281 453.878906 554.480469 469.214844 556.332031 489.320312 C 545.824219 496.042969 534.273438 501.203125 523.707031 503.6875 C 519.039062 504.714844 514.265625 505.394531 509.496094 505.886719 Z M 409.496094 470.773438 C 406.765625 468.144531 404.148438 465.367188 401.664062 462.492188 C 388.523438 447.113281 379.707031 428.117188 377.421875 408.113281 C 380.632812 409.183594 383.898438 410.0625 387.164062 410.886719 C 407.660156 415.703125 429.128906 418.1875 450.261719 416.394531 Z M 716.652344 469.417969 C 715.582031 459.050781 708.179688 449.410156 698.640625 444.539062 C 698.496094 444.496094 698.4375 444.4375 698.292969 444.394531 C 697.714844 444.105469 697.121094 443.816406 696.542969 443.570312 C 696.398438 443.527344 696.253906 443.46875 696.109375 443.425781 C 695.574219 443.179688 695.042969 442.992188 694.507812 442.847656 C 694.074219 442.660156 693.582031 442.515625 693.089844 442.414062 C 692.800781 442.3125 692.554688 442.269531 692.265625 442.167969 C 691.773438 442.066406 691.296875 441.921875 690.804688 441.820312 C 683.75 440.21875 677.175781 440.609375 677.175781 440.609375 C 665.726562 440.609375 655.363281 445.277344 647.859375 452.777344 C 643.871094 456.769531 640.703125 461.539062 638.566406 466.902344 C 635.832031 453.226562 622.347656 441.429688 608.035156 441.242188 L 576.234375 441.242188 L 576.234375 441.921875 C 589.144531 441.921875 601.402344 451.417969 605.882812 463.242188 C 604.667969 474.246094 602.863281 485.101562 599.796875 495.523438 C 594.347656 515.382812 583.433594 535.734375 567.417969 548.976562 C 556.503906 556.089844 542.296875 558.472656 533.042969 555.699219 C 515.710938 550.4375 510.507812 526.484375 509.527344 514.414062 C 510.308594 514.3125 511.128906 514.3125 511.910156 514.226562 C 527.292969 513.054688 542.441406 509.3125 556.605469 502.835938 C 567.273438 497.964844 577.390625 491.488281 586.601562 483.464844 C 585.328125 478.203125 583.332031 473.289062 580.703125 468.765625 C 571.941406 453.574219 556.15625 443.007812 537.757812 441.460938 C 504.988281 438.683594 478.027344 465.269531 478.027344 498.179688 L 478.027344 504.65625 C 462.878906 502.171875 448.179688 496.96875 434.835938 489.421875 L 467.433594 445.898438 C 477.855469 432.019531 474.980469 412.304688 461.101562 401.882812 L 460.957031 402.085938 L 460.710938 401.203125 C 433.160156 406.015625 404.972656 406.710938 377.074219 404.367188 C 376.539062 404.324219 375.960938 404.269531 375.425781 404.222656 C 374.070312 404.125 372.652344 404.023438 371.292969 403.835938 C 368.617188 403.589844 365.945312 403.253906 363.257812 402.722656 C 367.636719 432.65625 383.363281 459.6875 404.003906 478.132812 L 352.835938 546.433594 C 342.414062 560.308594 345.289062 580.027344 359.164062 590.449219 L 359.65625 589.871094 C 364.773438 588.367188 369.632812 586.601562 374.703125 585.386719 C 399.234375 578.277344 424.703125 576.425781 450.117188 577.945312 C 460.539062 578.480469 470.714844 579.9375 481.078125 581.210938 L 486.628906 563.734375 C 449.046875 555.800781 409.019531 557.445312 373.347656 571.628906 L 429.71875 496.316406 C 444.667969 504.542969 461.117188 510.148438 478.070312 512.824219 L 478.070312 513.316406 C 478.070312 528.507812 484.199219 542.242188 494.1875 552.214844 C 504.179688 562.1875 517.953125 568.375 533.1875 568.332031 C 542.542969 568.289062 551.199219 565.84375 558.847656 561.609375 C 558.992188 561.566406 559.136719 561.507812 559.28125 561.40625 C 572.175781 555.609375 582.886719 545.679688 591.023438 533.507812 C 599.203125 521.339844 604.898438 507.027344 607.71875 492.472656 L 607.71875 537.601562 C 607.71875 553.429688 622.910156 568.316406 639.113281 568.316406 L 639.113281 490.96875 C 639.113281 482.109375 641.703125 474.070312 645.878906 468.230469 C 650.070312 462.433594 655.855469 458.835938 662.242188 458.835938 C 674.992188 458.835938 685.371094 473.203125 685.371094 490.96875 L 685.371094 537.558594 C 685.371094 553.386719 700.605469 568.273438 716.824219 568.273438 L 716.824219 471.945312 C 716.824219 471.121094 716.824219 470.238281 716.679688 469.417969 " clip-rule="nonzero"/></clipPath><clipPath id="da12625dd4"><path d="M 0.359375 0.0390625 L 370.878906 0.0390625 L 370.878906 189.640625 L 0.359375 189.640625 Z M 0.359375 0.0390625 " clip-rule="nonzero"/></clipPath><clipPath id="c19e0a64de"><path d="M 163.496094 95.230469 C 163.496094 71.855469 174.0625 52.878906 187.058594 52.878906 C 198.738281 52.878906 208.480469 68.214844 210.332031 88.320312 C 199.824219 95.042969 188.273438 100.203125 177.707031 102.6875 C 173.039062 103.714844 168.265625 104.394531 163.496094 104.886719 Z M 63.496094 69.773438 C 60.765625 67.144531 58.148438 64.367188 55.664062 61.492188 C 42.523438 46.113281 33.707031 27.117188 31.421875 7.113281 C 34.632812 8.183594 37.898438 9.0625 41.164062 9.886719 C 61.660156 14.703125 83.128906 17.1875 104.261719 15.394531 Z M 370.652344 68.417969 C 369.582031 58.050781 362.179688 48.410156 352.640625 43.539062 C 352.496094 43.496094 352.4375 43.4375 352.292969 43.394531 C 351.714844 43.105469 351.121094 42.816406 350.542969 42.570312 C 350.398438 42.527344 350.253906 42.46875 350.109375 42.425781 C 349.574219 42.179688 349.042969 41.992188 348.507812 41.847656 C 348.074219 41.660156 347.582031 41.515625 347.089844 41.414062 C 346.800781 41.3125 346.554688 41.269531 346.265625 41.167969 C 345.773438 41.066406 345.296875 40.921875 344.804688 40.820312 C 337.75 39.21875 331.175781 39.609375 331.175781 39.609375 C 319.726562 39.609375 309.363281 44.277344 301.859375 51.777344 C 297.871094 55.769531 294.703125 60.539062 292.566406 65.902344 C 289.832031 52.226562 276.347656 40.429688 262.035156 40.242188 L 230.234375 40.242188 L 230.234375 40.921875 C 243.144531 40.921875 255.402344 50.417969 259.882812 62.242188 C 258.667969 73.246094 256.863281 84.101562 253.796875 94.523438 C 248.347656 114.382812 237.433594 134.734375 221.417969 147.976562 C 210.503906 155.089844 196.296875 157.472656 187.042969 154.699219 C 169.710938 149.4375 164.507812 125.484375 163.527344 113.414062 C 164.308594 113.3125 165.128906 113.3125 165.910156 113.226562 C 181.292969 112.054688 196.441406 108.3125 210.605469 101.835938 C 221.273438 96.964844 231.390625 90.488281 240.601562 82.464844 C 239.328125 77.203125 237.332031 72.289062 234.703125 67.765625 C 225.941406 52.574219 210.15625 42.007812 191.757812 40.460938 C 158.988281 37.683594 132.027344 64.269531 132.027344 97.179688 L 132.027344 103.65625 C 116.878906 101.171875 102.179688 95.96875 88.835938 88.421875 L 121.433594 44.898438 C 131.855469 31.019531 128.980469 11.304688 115.101562 0.882812 L 114.957031 1.085938 L 114.710938 0.203125 C 87.160156 5.015625 58.972656 5.710938 31.074219 3.367188 C 30.539062 3.324219 29.960938 3.269531 29.425781 3.222656 C 28.070312 3.125 26.652344 3.023438 25.292969 2.835938 C 22.617188 2.589844 19.945312 2.253906 17.257812 1.722656 C 21.636719 31.65625 37.363281 58.6875 58.003906 77.132812 L 6.835938 145.433594 C -3.585938 159.308594 -0.710938 179.027344 13.164062 189.449219 L 13.65625 188.871094 C 18.773438 187.367188 23.632812 185.601562 28.703125 184.386719 C 53.234375 177.277344 78.703125 175.425781 104.117188 176.945312 C 114.539062 177.480469 124.714844 178.9375 135.078125 180.210938 L 140.628906 162.734375 C 103.046875 154.800781 63.019531 156.445312 27.347656 170.628906 L 83.71875 95.316406 C 98.667969 103.542969 115.117188 109.148438 132.070312 111.824219 L 132.070312 112.316406 C 132.070312 127.507812 138.199219 141.242188 148.1875 151.214844 C 158.179688 161.1875 171.953125 167.375 187.1875 167.332031 C 196.542969 167.289062 205.199219 164.84375 212.847656 160.609375 C 212.992188 160.566406 213.136719 160.507812 213.28125 160.40625 C 226.175781 154.609375 236.886719 144.679688 245.023438 132.507812 C 253.203125 120.339844 258.898438 106.027344 261.71875 91.472656 L 261.71875 136.601562 C 261.71875 152.429688 276.910156 167.316406 293.113281 167.316406 L 293.113281 89.96875 C 293.113281 81.109375 295.703125 73.070312 299.878906 67.230469 C 304.070312 61.433594 309.855469 57.835938 316.242188 57.835938 C 328.992188 57.835938 339.371094 72.203125 339.371094 89.96875 L 339.371094 136.558594 C 339.371094 152.386719 354.605469 167.273438 370.824219 167.273438 L 370.824219 70.945312 C 370.824219 70.121094 370.824219 69.238281 370.679688 68.417969 " clip-rule="nonzero"/></clipPath><clipPath id="10e9e9aba4"><rect x="0" width="371" y="0" height="190"/></clipPath></defs><g clip-path="url(#328fb87798)"><g clip-path="url(#254d0fc416)"><g transform="matrix(1, 0, 0, 1, 287, 98)"><g clip-path="url(#908bd54dc8)"><g clip-path="url(#87280de40f)"><g clip-path="url(#0d879343a3)"><path fill="#f5bd82" d="M 0.0507812 0.839844 L 175.949219 0.839844 L 175.949219 250.941406 L 0.0507812 250.941406 Z M 0.0507812 0.839844 " fill-opacity="1" fill-rule="nonzero"/></g></g></g></g></g></g><g clip-path="url(#a4d5a7a1c6)"><g clip-path="url(#3fe5f75470)"><g transform="matrix(1, 0, 0, 1, 180, 397)"><g clip-path="url(#13621d1c08)"><g clip-path="url(#c24c155247)"><g clip-path="url(#8114e7ad34)"><rect x="-345" width="1080" fill="#f5bd82" height="1079.999992" y="-561.999999" fill-opacity="1"/></g></g></g></g></g></g><g clip-path="url(#f26ba6d826)"><g clip-path="url(#be4bc5e115)"><g transform="matrix(1, 0, 0, 1, 33, 397)"><g clip-path="url(#a8ff909d0f)"><g clip-path="url(#81e1b4cabd)"><g clip-path="url(#2166ad864f)"><rect x="-198" width="1080" fill="#416539" height="1079.999992" y="-561.999999" fill-opacity="1"/></g></g></g></g></g></g><g clip-path="url(#eee9dbbccf)"><g clip-path="url(#53dabb3ae3)"><g transform="matrix(1, 0, 0, 1, 346, 401)"><g clip-path="url(#10e9e9aba4)"><g clip-path="url(#da12625dd4)"><g clip-path="url(#c19e0a64de)"><rect x="-511" width="1080" fill="#f5bd82" height="1079.999992" y="-565.999999" fill-opacity="1"/></g></g></g></g></g></g></svg>