<svg xmlns="http://www.w3.org/2000/svg" xmlns:xlink="http://www.w3.org/1999/xlink" width="1920" zoomAndPan="magnify" viewBox="0 0 1440 809.999993" height="1080" preserveAspectRatio="xMidYMid meet" version="1.0"><defs><clipPath id="854de7715b"><path d="M 661.460938 241.394531 L 778.539062 241.394531 L 778.539062 407.863281 L 661.460938 407.863281 Z M 661.460938 241.394531 " clip-rule="nonzero"/></clipPath><clipPath id="897676dbf6"><path d="M 768.113281 327.957031 C 768.113281 352.992188 761.359375 363.941406 760.523438 365.203125 C 760.484375 365.289062 760.433594 365.328125 760.433594 365.328125 C 752.507812 379.835938 737.835938 390.199219 720.59375 391.246094 C 719.457031 391.332031 718.332031 391.332031 717.199219 391.332031 L 693.5 391.332031 C 701.304688 387.976562 709.144531 384.375 716.523438 380.847656 C 737.699219 369.609375 754.105469 348.757812 759.011719 325.359375 C 750.074219 346.285156 733.71875 364.328125 713.253906 374.304688 C 706.085938 377.574219 695.222656 382.355469 687.882812 385.792969 C 687.507812 386.003906 687.171875 386.128906 686.832031 386.339844 C 695.375 373.996094 706.125 360.199219 719.476562 346.015625 C 731.410156 333.347656 743.175781 322.773438 753.988281 314.046875 C 757.855469 310.917969 761.339844 307.292969 763.839844 303 C 766.449219 298.515625 768.585938 292.964844 768.585938 286.433594 C 768.585938 285.683594 768.625 284.835938 768.625 284.046875 C 768.613281 261.523438 751.257812 241.394531 729.109375 241.394531 L 662.925781 241.394531 L 662.925781 290.925781 C 670.226562 272.597656 687.171875 258.925781 707.757812 257.628906 C 709.019531 257.589844 710.230469 257.539062 711.53125 257.539062 L 743.15625 257.539062 C 731.207031 262.785156 718.621094 268.691406 707.171875 274.648438 C 685.832031 286.941406 668.878906 307.367188 661.460938 330.730469 C 672.699219 310.054688 689.816406 292.148438 710.617188 281.074219 C 717.910156 277.464844 728.984375 272.269531 736.488281 268.539062 C 738.796875 267.363281 741.144531 266.191406 743.492188 264.929688 C 738.539062 280.601562 729.542969 294.699219 717.398438 305.789062 L 675.394531 344.207031 L 675.402344 344.238281 C 673.421875 346.015625 671.582031 347.960938 670.015625 350.144531 C 670.015625 350.183594 669.976562 350.230469 669.929688 350.269531 C 665.398438 356.3125 662.925781 363.644531 662.925781 371.242188 L 662.925781 383.570312 C 662.925781 396.902344 673.75 407.6875 687.042969 407.6875 L 727.847656 407.6875 C 754.691406 407.6875 777.589844 386.761719 778.515625 359.957031 C 778.890625 347.835938 774.945312 336.722656 768.113281 327.957031 " clip-rule="nonzero"/></clipPath><clipPath id="62039ef32c"><path d="M 0.460938 0.394531 L 117.539062 0.394531 L 117.539062 166.761719 L 0.460938 166.761719 Z M 0.460938 0.394531 " clip-rule="nonzero"/></clipPath><clipPath id="681fd10057"><path d="M 107.113281 86.957031 C 107.113281 111.992188 100.359375 122.941406 99.523438 124.203125 C 99.484375 124.289062 99.433594 124.328125 99.433594 124.328125 C 91.507812 138.835938 76.835938 149.199219 59.59375 150.246094 C 58.457031 150.332031 57.332031 150.332031 56.199219 150.332031 L 32.5 150.332031 C 40.304688 146.976562 48.144531 143.375 55.523438 139.847656 C 76.699219 128.609375 93.105469 107.757812 98.011719 84.359375 C 89.074219 105.285156 72.71875 123.328125 52.253906 133.304688 C 45.085938 136.574219 34.222656 141.355469 26.882812 144.792969 C 26.507812 145.003906 26.171875 145.128906 25.832031 145.339844 C 34.375 132.996094 45.125 119.199219 58.476562 105.015625 C 70.410156 92.347656 82.175781 81.773438 92.988281 73.046875 C 96.855469 69.917969 100.339844 66.292969 102.839844 62 C 105.449219 57.515625 107.585938 51.964844 107.585938 45.433594 C 107.585938 44.683594 107.625 43.835938 107.625 43.046875 C 107.613281 20.523438 90.257812 0.394531 68.109375 0.394531 L 1.925781 0.394531 L 1.925781 49.925781 C 9.226562 31.597656 26.171875 17.925781 46.757812 16.628906 C 48.019531 16.589844 49.230469 16.539062 50.53125 16.539062 L 82.15625 16.539062 C 70.207031 21.785156 57.621094 27.691406 46.171875 33.648438 C 24.832031 45.941406 7.878906 66.367188 0.460938 89.730469 C 11.699219 69.054688 28.816406 51.148438 49.617188 40.074219 C 56.910156 36.464844 67.984375 31.269531 75.488281 27.539062 C 77.796875 26.363281 80.144531 25.191406 82.492188 23.929688 C 77.539062 39.601562 68.542969 53.699219 56.398438 64.789062 L 14.394531 103.207031 L 14.402344 103.238281 C 12.421875 105.015625 10.582031 106.960938 9.015625 109.144531 C 9.015625 109.183594 8.976562 109.230469 8.929688 109.269531 C 4.398438 115.3125 1.925781 122.644531 1.925781 130.242188 L 1.925781 142.570312 C 1.925781 155.902344 12.75 166.6875 26.042969 166.6875 L 66.847656 166.6875 C 93.691406 166.6875 116.589844 145.761719 117.515625 118.957031 C 117.890625 106.835938 113.945312 95.722656 107.113281 86.957031 " clip-rule="nonzero"/></clipPath><clipPath id="185b5b0152"><rect x="0" width="118" y="0" height="167"/></clipPath><clipPath id="868234ad0b"><path d="M 590.265625 440 L 611.859375 440 L 611.859375 465.984375 L 590.265625 465.984375 Z M 590.265625 440 " clip-rule="nonzero"/></clipPath><clipPath id="0734bde127"><path d="M 611.496094 465.480469 L 611.496094 460.496094 C 611.496094 449.941406 601.347656 440.023438 590.5625 440.023438 L 590.5625 445.007812 C 590.5625 455.558594 600.722656 465.480469 611.496094 465.480469 " clip-rule="nonzero"/></clipPath><clipPath id="30d10b6430"><path d="M 0.398438 0 L 21.519531 0 L 21.519531 25.601562 L 0.398438 25.601562 Z M 0.398438 0 " clip-rule="nonzero"/></clipPath><clipPath id="9dca5f0216"><path d="M 21.496094 25.480469 L 21.496094 20.496094 C 21.496094 9.941406 11.347656 0.0234375 0.5625 0.0234375 L 0.5625 5.007812 C 0.5625 15.558594 10.722656 25.480469 21.496094 25.480469 " clip-rule="nonzero"/></clipPath><clipPath id="de3541dbdc"><rect x="0" width="22" y="0" height="26"/></clipPath><clipPath id="f531766d75"><path d="M 492.011719 440 L 700.9375 440 L 700.9375 553.980469 L 492.011719 553.980469 Z M 492.011719 440 " clip-rule="nonzero"/></clipPath><clipPath id="87fae4c454"><path d="M 679.507812 517.242188 C 679.507812 532.800781 672.476562 545.46875 663.828125 545.46875 C 655.175781 545.46875 648.144531 532.800781 648.144531 517.242188 L 648.144531 505.898438 C 648.144531 490.339844 655.175781 477.707031 663.828125 477.707031 C 672.476562 477.707031 679.507812 490.351562 679.507812 505.898438 Z M 527.246094 548.480469 L 513.4375 548.480469 L 513.4375 495.074219 L 527.246094 495.074219 C 541.957031 495.074219 553.945312 507.0625 553.945312 521.773438 C 553.945312 536.523438 541.957031 548.472656 527.246094 548.472656 M 507.019531 446.34375 L 523.773438 446.34375 C 535.019531 446.34375 544.148438 455.484375 544.148438 466.722656 C 544.148438 477.929688 535.007812 487.070312 523.773438 487.070312 L 513.4375 487.070312 L 513.4375 460.503906 C 513.4375 455.253906 510.90625 450.132812 507.019531 446.34375 M 666.972656 469.414062 C 665.25 469.289062 663.605469 469.25 661.921875 469.347656 L 661.789062 469.347656 C 661.460938 469.375 661.171875 469.414062 660.84375 469.445312 C 639.003906 470.644531 619.914062 485.714844 611.496094 505.542969 L 611.496094 489.765625 C 611.496094 479.199219 601.355469 469.28125 590.5625 469.28125 L 590.5625 483.835938 C 589.78125 491.582031 588.550781 499.164062 586.386719 506.457031 C 583.691406 516.375 578.902344 526.449219 572.195312 534.589844 C 573.917969 530.664062 574.890625 526.351562 574.890625 521.792969 C 574.890625 513.980469 572.097656 506.792969 567.433594 501.25 C 562.765625 495.679688 556.253906 491.726562 548.835938 490.300781 C 557.292969 485.828125 563.066406 476.949219 563.066406 466.742188 C 563.066406 459.351562 560.082031 452.675781 555.253906 447.84375 C 550.421875 443.015625 543.734375 440.023438 536.375 440.023438 L 492.503906 440.023438 L 492.503906 533.414062 C 492.503906 543.949219 502.644531 553.859375 513.4375 553.859375 L 541.464844 553.859375 L 541.464844 553.890625 C 567.097656 554.4375 584.402344 532.789062 590.5625 509.074219 L 590.5625 533.414062 C 590.5625 543.949219 600.742188 553.859375 611.496094 553.859375 L 611.496094 522.425781 C 611.527344 522.332031 611.566406 522.234375 611.566406 522.101562 C 612.34375 519.023438 613.480469 514.75 614.546875 511.796875 C 618.925781 500.386719 626.179688 489.984375 635.933594 482.566406 C 630.488281 489.207031 627.191406 497.769531 627.191406 507.128906 L 627.191406 517.242188 C 627.191406 527.355469 631.308594 536.492188 637.917969 543.132812 C 644.59375 549.769531 653.761719 553.890625 663.902344 553.859375 C 684.28125 553.832031 700.453125 536.457031 700.453125 516.078125 L 700.453125 505.898438 C 700.453125 486.753906 685.742188 471.003906 666.984375 469.414062 " clip-rule="nonzero"/></clipPath><clipPath id="272eb2e4b7"><path d="M 0.480469 0 L 208.558594 0 L 208.558594 113.980469 L 0.480469 113.980469 Z M 0.480469 0 " clip-rule="nonzero"/></clipPath><clipPath id="db8b66470f"><path d="M 187.507812 77.242188 C 187.507812 92.800781 180.476562 105.46875 171.828125 105.46875 C 163.175781 105.46875 156.144531 92.800781 156.144531 77.242188 L 156.144531 65.898438 C 156.144531 50.339844 163.175781 37.707031 171.828125 37.707031 C 180.476562 37.707031 187.507812 50.351562 187.507812 65.898438 Z M 35.246094 108.480469 L 21.4375 108.480469 L 21.4375 55.074219 L 35.246094 55.074219 C 49.957031 55.074219 61.945312 67.0625 61.945312 81.773438 C 61.945312 96.523438 49.957031 108.472656 35.246094 108.472656 M 15.019531 6.34375 L 31.773438 6.34375 C 43.019531 6.34375 52.148438 15.484375 52.148438 26.722656 C 52.148438 37.929688 43.007812 47.070312 31.773438 47.070312 L 21.4375 47.070312 L 21.4375 20.503906 C 21.4375 15.253906 18.90625 10.132812 15.019531 6.34375 M 174.972656 29.414062 C 173.25 29.289062 171.605469 29.25 169.921875 29.347656 L 169.789062 29.347656 C 169.460938 29.375 169.171875 29.414062 168.84375 29.445312 C 147.003906 30.644531 127.914062 45.714844 119.496094 65.542969 L 119.496094 49.765625 C 119.496094 39.199219 109.355469 29.28125 98.5625 29.28125 L 98.5625 43.835938 C 97.78125 51.582031 96.550781 59.164062 94.386719 66.457031 C 91.691406 76.375 86.902344 86.449219 80.195312 94.589844 C 81.917969 90.664062 82.890625 86.351562 82.890625 81.792969 C 82.890625 73.980469 80.097656 66.792969 75.433594 61.25 C 70.765625 55.679688 64.253906 51.726562 56.835938 50.300781 C 65.292969 45.828125 71.066406 36.949219 71.066406 26.742188 C 71.066406 19.351562 68.082031 12.675781 63.253906 7.84375 C 58.421875 3.015625 51.734375 0.0234375 44.375 0.0234375 L 0.503906 0.0234375 L 0.503906 93.414062 C 0.503906 103.949219 10.644531 113.859375 21.4375 113.859375 L 49.464844 113.859375 L 49.464844 113.890625 C 75.097656 114.4375 92.402344 92.789062 98.5625 69.074219 L 98.5625 93.414062 C 98.5625 103.949219 108.742188 113.859375 119.496094 113.859375 L 119.496094 82.425781 C 119.527344 82.332031 119.566406 82.234375 119.566406 82.101562 C 120.34375 79.023438 121.480469 74.75 122.546875 71.796875 C 126.925781 60.386719 134.179688 49.984375 143.933594 42.566406 C 138.488281 49.207031 135.191406 57.769531 135.191406 67.128906 L 135.191406 77.242188 C 135.191406 87.355469 139.308594 96.492188 145.917969 103.132812 C 152.59375 109.769531 161.761719 113.890625 171.902344 113.859375 C 192.28125 113.832031 208.453125 96.457031 208.453125 76.078125 L 208.453125 65.898438 C 208.453125 46.753906 193.742188 31.003906 174.984375 29.414062 " clip-rule="nonzero"/></clipPath><clipPath id="51c65cc3c7"><rect x="0" width="209" y="0" height="114"/></clipPath><clipPath id="64670392e1"><path d="M 701 442.230469 L 947.648438 442.230469 L 947.648438 569 L 701 569 Z M 701 442.230469 " clip-rule="nonzero"/></clipPath><clipPath id="e0931aaa65"><path d="M 809.519531 505.898438 C 809.519531 490.339844 816.554688 477.707031 825.203125 477.707031 C 832.976562 477.707031 839.460938 487.917969 840.691406 501.300781 C 833.699219 505.773438 826.011719 509.207031 818.976562 510.863281 C 815.871094 511.546875 812.695312 512 809.519531 512.324219 Z M 742.960938 488.957031 C 741.144531 487.203125 739.402344 485.355469 737.746094 483.441406 C 729 473.207031 723.132812 460.5625 721.613281 447.246094 C 723.746094 447.960938 725.921875 448.546875 728.097656 449.09375 C 741.738281 452.300781 756.027344 453.953125 770.09375 452.761719 Z M 947.402344 488.050781 C 946.691406 481.152344 941.761719 474.734375 935.414062 471.492188 C 935.316406 471.464844 935.277344 471.425781 935.183594 471.398438 C 934.796875 471.203125 934.402344 471.011719 934.019531 470.847656 C 933.921875 470.820312 933.824219 470.78125 933.730469 470.753906 C 933.375 470.589844 933.019531 470.464844 932.660156 470.367188 C 932.375 470.242188 932.046875 470.144531 931.71875 470.078125 C 931.527344 470.011719 931.363281 469.984375 931.171875 469.914062 C 930.84375 469.847656 930.527344 469.75 930.199219 469.683594 C 925.503906 468.617188 921.125 468.875 921.125 468.875 C 913.507812 468.875 906.609375 471.984375 901.613281 476.976562 C 898.960938 479.632812 896.851562 482.808594 895.429688 486.378906 C 893.609375 477.277344 884.632812 469.425781 875.109375 469.300781 L 853.941406 469.300781 L 853.941406 469.75 C 862.535156 469.75 870.691406 476.074219 873.675781 483.941406 C 872.867188 491.265625 871.664062 498.488281 869.625 505.425781 C 865.996094 518.648438 858.734375 532.191406 848.074219 541.007812 C 840.808594 545.738281 831.351562 547.328125 825.195312 545.480469 C 813.65625 541.976562 810.195312 526.035156 809.539062 518 C 810.058594 517.933594 810.609375 517.933594 811.128906 517.875 C 821.363281 517.097656 831.449219 514.605469 840.875 510.296875 C 847.976562 507.054688 854.710938 502.742188 860.839844 497.402344 C 859.992188 493.902344 858.664062 490.628906 856.914062 487.617188 C 851.085938 477.507812 840.578125 470.472656 828.328125 469.445312 C 806.519531 467.597656 788.574219 485.289062 788.574219 507.199219 L 788.574219 511.507812 C 778.492188 509.851562 768.707031 506.390625 759.828125 501.367188 L 781.523438 472.398438 C 788.460938 463.160156 786.546875 450.039062 777.308594 443.101562 L 777.210938 443.234375 L 777.050781 442.648438 C 758.710938 445.851562 739.949219 446.316406 721.382812 444.757812 C 721.023438 444.726562 720.640625 444.6875 720.285156 444.660156 C 719.378906 444.59375 718.4375 444.523438 717.53125 444.398438 C 715.753906 444.234375 713.972656 444.015625 712.183594 443.660156 C 715.097656 463.585938 725.566406 481.574219 739.304688 493.851562 L 705.246094 539.3125 C 698.308594 548.550781 700.222656 561.671875 709.460938 568.609375 L 709.789062 568.222656 C 713.191406 567.222656 716.425781 566.050781 719.804688 565.242188 C 736.128906 560.507812 753.082031 559.277344 769.996094 560.285156 C 776.933594 560.644531 783.707031 561.613281 790.605469 562.460938 L 794.300781 550.828125 C 769.285156 545.546875 742.644531 546.644531 718.898438 556.082031 L 756.421875 505.957031 C 766.371094 511.429688 777.320312 515.164062 788.605469 516.945312 L 788.605469 517.269531 C 788.605469 527.382812 792.683594 536.523438 799.332031 543.160156 C 805.980469 549.800781 815.148438 553.917969 825.289062 553.890625 C 831.515625 553.859375 837.277344 552.234375 842.367188 549.414062 C 842.464844 549.386719 842.558594 549.347656 842.65625 549.28125 C 851.238281 545.421875 858.367188 538.8125 863.785156 530.710938 C 869.230469 522.609375 873.019531 513.085938 874.894531 503.398438 L 874.894531 533.433594 C 874.894531 543.96875 885.007812 553.878906 895.792969 553.878906 L 895.792969 502.394531 C 895.792969 496.5 897.515625 491.148438 900.296875 487.261719 C 903.085938 483.402344 906.933594 481.007812 911.1875 481.007812 C 919.671875 481.007812 926.582031 490.570312 926.582031 502.394531 L 926.582031 533.40625 C 926.582031 543.941406 936.722656 553.851562 947.515625 553.851562 L 947.515625 489.734375 C 947.515625 489.1875 947.515625 488.597656 947.421875 488.050781 " clip-rule="nonzero"/></clipPath><clipPath id="50d46f7492"><path d="M 0 0.558594 L 246.519531 0.558594 L 246.519531 126.800781 L 0 126.800781 Z M 0 0.558594 " clip-rule="nonzero"/></clipPath><clipPath id="8b79e319cd"><path d="M 108.519531 63.898438 C 108.519531 48.339844 115.554688 35.707031 124.203125 35.707031 C 131.976562 35.707031 138.460938 45.917969 139.691406 59.300781 C 132.699219 63.773438 125.011719 67.207031 117.976562 68.863281 C 114.871094 69.546875 111.695312 70 108.519531 70.324219 Z M 41.960938 46.957031 C 40.144531 45.203125 38.402344 43.355469 36.746094 41.441406 C 28 31.207031 22.132812 18.5625 20.613281 5.246094 C 22.746094 5.960938 24.921875 6.546875 27.097656 7.09375 C 40.738281 10.300781 55.027344 11.953125 69.09375 10.761719 Z M 246.402344 46.050781 C 245.691406 39.152344 240.761719 32.734375 234.414062 29.492188 C 234.316406 29.464844 234.277344 29.425781 234.183594 29.398438 C 233.796875 29.203125 233.402344 29.011719 233.019531 28.847656 C 232.921875 28.820312 232.824219 28.78125 232.730469 28.753906 C 232.375 28.589844 232.019531 28.464844 231.660156 28.367188 C 231.375 28.242188 231.046875 28.144531 230.71875 28.078125 C 230.527344 28.011719 230.363281 27.984375 230.171875 27.914062 C 229.84375 27.847656 229.527344 27.75 229.199219 27.683594 C 224.503906 26.617188 220.125 26.875 220.125 26.875 C 212.507812 26.875 205.609375 29.984375 200.613281 34.976562 C 197.960938 37.632812 195.851562 40.808594 194.429688 44.378906 C 192.609375 35.277344 183.632812 27.425781 174.109375 27.300781 L 152.941406 27.300781 L 152.941406 27.75 C 161.535156 27.75 169.691406 34.074219 172.675781 41.941406 C 171.867188 49.265625 170.664062 56.488281 168.625 63.425781 C 164.996094 76.648438 157.734375 90.191406 147.074219 99.007812 C 139.808594 103.738281 130.351562 105.328125 124.195312 103.480469 C 112.65625 99.976562 109.195312 84.035156 108.539062 76 C 109.058594 75.933594 109.609375 75.933594 110.128906 75.875 C 120.363281 75.097656 130.449219 72.605469 139.875 68.296875 C 146.976562 65.054688 153.710938 60.742188 159.839844 55.402344 C 158.992188 51.902344 157.664062 48.628906 155.914062 45.617188 C 150.085938 35.507812 139.578125 28.472656 127.328125 27.445312 C 105.519531 25.597656 87.574219 43.289062 87.574219 65.199219 L 87.574219 69.507812 C 77.492188 67.851562 67.707031 64.390625 58.828125 59.367188 L 80.523438 30.398438 C 87.460938 21.160156 85.546875 8.039062 76.308594 1.101562 L 76.210938 1.234375 L 76.050781 0.648438 C 57.710938 3.851562 38.949219 4.316406 20.382812 2.757812 C 20.023438 2.726562 19.640625 2.6875 19.285156 2.660156 C 18.378906 2.59375 17.4375 2.523438 16.53125 2.398438 C 14.753906 2.234375 12.972656 2.015625 11.183594 1.660156 C 14.097656 21.585938 24.566406 39.574219 38.304688 51.851562 L 4.246094 97.3125 C -2.691406 106.550781 -0.777344 119.671875 8.460938 126.609375 L 8.789062 126.222656 C 12.191406 125.222656 15.425781 124.050781 18.804688 123.242188 C 35.128906 118.507812 52.082031 117.277344 68.996094 118.285156 C 75.933594 118.644531 82.707031 119.613281 89.605469 120.460938 L 93.300781 108.828125 C 68.285156 103.546875 41.644531 104.644531 17.898438 114.082031 L 55.421875 63.957031 C 65.371094 69.429688 76.320312 73.164062 87.605469 74.945312 L 87.605469 75.269531 C 87.605469 85.382812 91.683594 94.523438 98.332031 101.160156 C 104.980469 107.800781 114.148438 111.917969 124.289062 111.890625 C 130.515625 111.859375 136.277344 110.234375 141.367188 107.414062 C 141.464844 107.386719 141.558594 107.347656 141.65625 107.28125 C 150.238281 103.421875 157.367188 96.8125 162.785156 88.710938 C 168.230469 80.609375 172.019531 71.085938 173.894531 61.398438 L 173.894531 91.433594 C 173.894531 101.96875 184.007812 111.878906 194.792969 111.878906 L 194.792969 60.394531 C 194.792969 54.5 196.515625 49.148438 199.296875 45.261719 C 202.085938 41.402344 205.933594 39.007812 210.1875 39.007812 C 218.671875 39.007812 225.582031 48.570312 225.582031 60.394531 L 225.582031 91.40625 C 225.582031 101.941406 235.722656 111.851562 246.515625 111.851562 L 246.515625 47.734375 C 246.515625 47.1875 246.515625 46.597656 246.421875 46.050781 " clip-rule="nonzero"/></clipPath><clipPath id="404e47d6ec"><rect x="0" width="247" y="0" height="127"/></clipPath></defs><g clip-path="url(#854de7715b)"><g clip-path="url(#897676dbf6)"><g transform="matrix(1, 0, 0, 1, 661, 241)"><g clip-path="url(#185b5b0152)"><g clip-path="url(#62039ef32c)"><g clip-path="url(#681fd10057)"><path fill="#f5bd82" d="M 0.460938 0.394531 L 117.539062 0.394531 L 117.539062 166.863281 L 0.460938 166.863281 Z M 0.460938 0.394531 " fill-opacity="1" fill-rule="nonzero"/></g></g></g></g></g></g><g clip-path="url(#868234ad0b)"><g clip-path="url(#0734bde127)"><g transform="matrix(1, 0, 0, 1, 590, 440)"><g clip-path="url(#de3541dbdc)"><g clip-path="url(#30d10b6430)"><g clip-path="url(#9dca5f0216)"><rect x="-906.8" width="2073.6" fill="#f5bd82" height="1166.39999" y="-618.199998" fill-opacity="1"/></g></g></g></g></g></g><g clip-path="url(#f531766d75)"><g clip-path="url(#87fae4c454)"><g transform="matrix(1, 0, 0, 1, 492, 440)"><g clip-path="url(#51c65cc3c7)"><g clip-path="url(#272eb2e4b7)"><g clip-path="url(#db8b66470f)"><rect x="-808.8" width="2073.6" fill="#416539" height="1166.39999" y="-618.199998" fill-opacity="1"/></g></g></g></g></g></g><g clip-path="url(#64670392e1)"><g clip-path="url(#e0931aaa65)"><g transform="matrix(1, 0, 0, 1, 701, 442)"><g clip-path="url(#404e47d6ec)"><g clip-path="url(#50d46f7492)"><g clip-path="url(#8b79e319cd)"><rect x="-1017.8" width="2073.6" fill="#f5bd82" height="1166.39999" y="-620.199998" fill-opacity="1"/></g></g></g></g></g></g></svg>